<svg xmlns="http://www.w3.org/2000/svg" viewBox="0 0 32 32">
  <!-- Solid gold rounded background -->
  <rect width="32" height="32" rx="10" fill="#d4b774"/>

  <!-- Actual Commercial Plane icon (Lucide Plane, stroked outline, centered) -->
  <svg x="6" y="6" width="20" height="20" viewBox="0 0 24 24" fill="none" stroke="#1c1a17" stroke-width="2.5" stroke-linecap="round" stroke-linejoin="round">
    <path d="M17.8 19.2 16 11l3.5-3.5C21 6 21.5 4 21 3c-1-.5-3 0-4.5 1.5L13 8 4.8 6.2c-.5-.1-.9.1-1.1.5l-.3.5c-.2.5-.1 1 .3 1.3L9 12l-2 3H4l-1 1 3 2 2 3 1-1v-3l3-2 3.5 5.3c.3.4.8.5 1.3.3l.5-.2c.4-.3.6-.7.5-1.2z"/>
  </svg>
</svg>
